<svg width="106" height="128" viewBox="0 0 106 128" xmlns="http://www.w3.org/2000/svg" xmlns:xlink="http://www.w3.org/1999/xlink"><title>elenaelena</title><defs><path d="M34.545 66.122v8.474C15.253 75.874 0 91.927 0 111.543h90.91c0-19.616-15.254-35.67-34.546-36.947v-8.474c7.873-3.74 13.522-11.403 14.42-20.464a5.456 5.456 0 0 0 4.67-5.398v-6.463a5.456 5.456 0 0 0-4.545-5.379v-2.963C70.91 11.396 59.513 0 45.455 0 31.396 0 20 11.396 20 25.455v2.963a5.456 5.456 0 0 0-4.545 5.38v6.462a5.456 5.456 0 0 0 4.67 5.398c.898 9.06 6.547 16.724 14.42 20.464z" id="a"/><path d="M72.206 13.374C90.863 15.158 105.455 30.875 105.455 50h-90.91c0-19.125 14.592-34.842 33.25-36.626-.045.393-.068.791-.068 1.195 0 6.276 5.495 11.364 12.273 11.364s12.273-5.088 12.273-11.364c0-.404-.023-.802-.067-1.195z" id="c"/><path id="e" d="M0 0h120v128H0z"/><path d="M82.127 47.65c.423.776.662 1.664.662 2.609v5.997a5.459 5.459 0 0 1-4.634 5.396c-.754 9.261-6.463 17.12-14.47 20.925v4.305a12.718 12.718 0 0 0 5.685 1.347c3.467 0 6.647-1.415 9.125-3.768.665.073 1.339.11 2.02.11 8.365 0 15.584-5.63 18.933-13.767 2.856-2.318 4.721-6.14 4.721-10.461 0-.816-.066-1.614-.193-2.388a29.353 29.353 0 0 0 1.558-9.498c0-5.881-1.701-11.308-4.57-15.668.014-.261.021-.524.021-.789 0-5.009-2.505-9.346-6.154-11.448-3.326-8.04-10.34-13.7-18.548-14.126-2.012-2.278-4.774-3.683-7.822-3.683-.433 0-.86.028-1.28.083A37.937 37.937 0 0 0 52.767 0c-5.1 0-9.967 1.004-14.415 2.826a9.825 9.825 0 0 0-1.279-.083c-3.048 0-5.81 1.405-7.822 3.683-8.208.427-15.222 6.086-18.548 14.126C7.053 22.654 4.55 26.992 4.55 32c0 .265.007.528.02.789C1.702 37.149 0 42.576 0 48.457c0 3.352.552 6.555 1.558 9.498a14.727 14.727 0 0 0-.193 2.388c0 4.322 1.865 8.143 4.72 10.461 3.35 8.137 10.568 13.767 18.934 13.767.681 0 1.355-.037 2.02-.11 2.478 2.353 5.658 3.768 9.125 3.768 2.02 0 3.942-.48 5.686-1.347v-4.305c-8.009-3.804-13.717-11.664-14.472-20.925a5.46 5.46 0 0 1-4.634-5.396v-5.997c0-.944.24-1.832.662-2.607 1.192-.37 2.498-1.348 3.809-2.763l.078-.014v-.07c3.14-3.432 6.288-9.348 7.939-15.39 5.05.792 11.14 1.253 17.696 1.253 6.425 0 12.402-.443 17.391-1.205 1.653 6.022 4.792 11.914 7.922 15.337v.075l.083.015c1.308 1.413 2.612 2.39 3.803 2.76z" id="g"/><filter x="-1.7%" y="-5.3%" width="104.2%" height="121.2%" filterUnits="objectBoundingBox" id="i"><feOffset dy="2" in="SourceAlpha" result="shadowOffsetOuter1"/><feColorMatrix values="0 0 0 0 0 0 0 0 0 0 0 0 0 0 0 0 0 0 0.2 0" in="shadowOffsetOuter1" result="shadowMatrixOuter1"/><feMerge><feMergeNode in="shadowMatrixOuter1"/><feMergeNode in="SourceGraphic"/></feMerge></filter></defs><g fill="none" fill-rule="evenodd"><g transform="translate(7.545 16.457)"><mask id="b" fill="#fff"><use xlink:href="#a"/></mask><use fill="#D0C6AC" xlink:href="#a"/><g mask="url(#b)" fill="#FFDBB4"><path d="M-14.545 0h120v112h-120z"/></g><path d="M70.91 36.114v10.66c0 14.058-11.397 25.455-25.455 25.455C31.396 72.229 20 60.832 20 46.774v-10.66 7.003C20 57.175 31.396 68.57 45.455 68.57c14.058 0 25.454-11.396 25.454-25.454v-7.003z" fill-opacity=".1" fill="#000" mask="url(#b)"/></g><g transform="translate(-7 77.714)"><mask id="d" fill="#fff"><use xlink:href="#c"/></mask><use fill="#E6E6E6" xlink:href="#c"/><g mask="url(#d)" fill="#25557C"><path d="M0 0h120v50H0z"/></g><path d="M70.91 10.127c2.809 2.07 4.545 4.921 4.545 8.068 0 3.275-1.881 6.23-4.896 8.317L67.99 24.49l-2.082.15.455-1.431-.036-.028c2.773-1.429 4.581-3.77 4.581-6.418v-6.635zm-21.82-.322c-3.075 2.092-5 5.077-5 8.39 0 3.362 1.983 6.387 5.141 8.483l2.778-2.189 2.082.15-.455-1.431.036-.028c-2.773-1.429-4.581-3.77-4.581-6.418V9.805z" fill="#F2F2F2"/></g><g fill="#000"><path d="M46.603 68.075c0 3.515 2.844 6.364 6.352 6.364 3.508 0 6.351-2.85 6.351-6.364" fill-opacity=".7"/><path d="M47.416 59.438c0 2.025 2.398 3.667 5.357 3.667 2.958 0 5.357-1.642 5.357-3.667" fill-opacity=".16"/><path d="M34.904 51.346c.84-1.727 2.734-2.93 4.935-2.93 2.193 0 4.08 1.195 4.926 2.912.251.51-.106.927-.467.618-1.116-.958-2.7-1.556-4.459-1.556-1.703 0-3.244.561-4.353 1.467-.406.331-.828-.006-.582-.51zm26.411 0c.84-1.727 2.734-2.93 4.935-2.93 2.193 0 4.08 1.195 4.926 2.912.25.51-.107.927-.467.618-1.116-.958-2.701-1.556-4.46-1.556-1.702 0-3.243.561-4.353 1.467-.405.331-.827-.006-.581-.51zM45.15 42.568c-2.276.166-4.519.04-6.793-.055-1.744-.072-3.514-.311-5.18.465-.318.149-2.062 1.045-2.022 1.535.032.393 1.792 1.004 2.109 1.117 1.67.59 3.27.41 4.987.305 2.108-.127 4.206-.035 6.312-.099 1.419-.043 3.605-.285 4.307-2.017.211-.521.048-1.564-.163-2.134-.085-.227-.329-.313-.513-.182-.66.47-1.94.984-3.044 1.065m15.791 0c2.276.166 4.519.04 6.793-.055 1.744-.072 3.514-.311 5.18.465.318.149 2.062 1.045 2.022 1.535-.032.393-1.792 1.004-2.109 1.117-1.67.59-3.27.41-4.988.305-2.107-.127-4.205-.035-6.311-.099-1.419-.043-3.605-.285-4.307-2.017-.211-.521-.048-1.564.163-2.134.085-.227.328-.313.513-.182.66.47 1.94.984 3.044 1.065" fill-opacity=".6"/></g><g transform="translate(-7)"><mask id="f" fill="#fff"><use xlink:href="#e"/></mask><g mask="url(#f)"><path d="M30.023 50.081c4.129-.484 10.004-9.29 12.487-18.38 5.05.791 11.14 1.253 17.696 1.253 6.425 0 12.403-.443 17.392-1.205 2.489 9.069 8.349 17.843 12.47 18.332v-9.544c0-10.413-5.301-19.588-13.352-24.973a23.93 23.93 0 0 0-.498 3.767c-4.696-.639-10.169-1.006-16.012-1.006-5.974 0-11.561.384-16.327 1.05a23.98 23.98 0 0 0-.5-3.813c-8.053 5.384-13.356 14.56-13.356 24.975v9.544z" fill-opacity=".16" fill="#000"/><g transform="translate(7.279)"><mask id="h" fill="#fff"><use xlink:href="#g"/></mask><use fill="#314756" xlink:href="#g"/><g mask="url(#h)" fill="#2C1B18"><path d="M-7.278 0h120v128h-120z"/></g></g><g filter="url(#i)" transform="translate(30.495 42.098)" fill="#252C2F" fill-rule="nonzero"><path d="M15.563 18.981h-1.262c-6.375 0-10.181-3.548-10.181-9.49C4.12 4.688 4.95 0 14.89 0h1.346c9.94 0 10.771 4.688 10.771 9.49 0 5.588-4.705 9.491-11.444 9.491zm-.739-16.203c-8.873 0-8.873 3.167-8.873 7.176 0 3.274 1.426 7.176 8.226 7.176h1.386c5.66 0 9.613-2.95 9.613-7.176 0-4.01 0-7.176-8.874-7.176h-1.478zm29.12 16.203H42.68c-6.375 0-10.181-3.548-10.181-9.49C32.5 4.688 33.332 0 43.27 0h1.347c9.939 0 10.77 4.688 10.77 9.49 0 5.588-4.705 9.491-11.443 9.491zm-.74-16.203c-8.873 0-8.873 3.167-8.873 7.176 0 3.274 1.428 7.176 8.226 7.176h1.387c5.66 0 9.612-2.95 9.612-7.176 0-4.01 0-7.176-8.873-7.176h-1.478z"/><path d="M1.352 2.672C1.67 2.359 5.132 0 14.877 0c8.171 0 9.9.858 12.52 2.154l.19.095a7.711 7.711 0 0 0 2.203.42 7.704 7.704 0 0 0 2.088-.402C34.867.797 37.792 0 44.63 0c9.746 0 13.208 2.36 13.525 2.672.748 0 1.352.597 1.352 1.336v1.336c0 .739-.604 1.336-1.352 1.336 0 0-3.16 0-3.16 1.336s-.898-1.933-.898-2.672V4.043c-1.65-.639-4.602-1.827-9.467-1.827-5.42 0-8.12.972-10.435 1.937l.026.063-.002.92-1.014 2.477-1.254-.502a5.916 5.916 0 0 0-.689-.208c-.933-.233-1.893-.304-2.743-.128-.311.065-.6.162-.865.293l-1.21.598-1.21-2.39.054-1.062.037-.09c-1.997-.942-3.839-1.908-10.448-1.908-4.865 0-7.818 1.188-9.467 1.826v1.302c0 .739-1.353 4.008-1.353 2.672 0-1.336-2.705-1.336-2.705-1.336A1.344 1.344 0 0 1 0 5.344V4.008c0-.739.606-1.336 1.352-1.336z"/></g></g></g></g></svg>